<?xml version="1.0" encoding="UTF-8"?>
<svg width="504px" height="152px" viewBox="0 0 504 152" version="1.1" xmlns="http://www.w3.org/2000/svg" xmlns:xlink="http://www.w3.org/1999/xlink">
    <!-- Generator: Sketch 47.1 (45422) - http://www.bohemiancoding.com/sketch -->
    <title>лого copy</title>
    <desc>Created with Sketch.</desc>
    <defs>
        <linearGradient x1="50%" y1="0%" x2="50%" y2="93.3514031%" id="linearGradient-1">
            <stop stop-color="#FFBF5D" offset="0%"></stop>
            <stop stop-color="#D9652E" offset="100%"></stop>
        </linearGradient>
    </defs>
    <g id="Page-1" stroke="none" stroke-width="1" fill="none" fill-rule="evenodd">
        <g id="лого-copy">
            <g id="white" transform="translate(121.000000, 32.000000)" fill="#FFFFFF">
                <path d="M11.7481,19.7529 L11.7481,25.4157 L22.2221,25.4157 L22.2221,31.2899 C22.2221,33.2115 21.825,35.0977 20.7836,36.7344 C19.5655,38.6481 17.5189,39.3409 15.3274,39.3409 C13.5442,39.3409 11.9664,38.698 10.6508,37.4969 C9.744,36.6689 9.1096,35.6805 8.7199,34.5756 L2.3867,36.4113 C3.0871,38.9052 4.3965,41.0386 6.5108,42.6872 C9.0787,44.689 12.0971,45.4799 15.3274,45.4799 C17.4557,45.4799 19.6919,45.2015 21.6504,44.3262 C23.2415,43.6147 24.654,42.6262 25.7601,41.2699 C26.8644,39.9155 27.6312,38.3706 28.1182,36.6956 C28.6557,34.8468 28.9051,32.942 28.9051,31.0181 L28.9051,14.1505 C28.9051,12.4784 28.6837,10.8215 28.2738,9.2015 C27.8756,7.6297 27.1794,6.2044 26.1816,4.9269 C25.1152,3.5617 23.7035,2.5571 22.1524,1.8093 C20.1619,0.8489 17.7856,0.5729 15.5996,0.5729 C13.8075,0.5729 11.9981,0.8132 10.3172,1.4544 C8.8551,2.0126 7.4865,2.7742 6.296,3.795 C5.1961,4.7375 4.2873,5.8433 3.5994,7.1175 C3.1458,7.9582 2.7728,8.8336 2.4882,9.7395 L8.6652,11.6155 C8.7006,11.5305 8.7369,11.446 8.774,11.3627 C9.1207,10.582 9.5907,9.8691 10.1525,9.227 C10.7753,8.515 11.5248,7.9398 12.3528,7.4857 C13.3534,6.9366 14.4646,6.7116 15.5996,6.7116 C16.7946,6.7116 18.0685,6.8734 19.1363,7.4429 C19.9981,7.9024 20.7456,8.5297 21.2666,9.3634 C21.7326,10.1095 22.0175,10.9301 22.111,11.8046 C22.1802,12.4478 22.2221,13.0955 22.2221,13.7423 L22.2221,19.7529 L11.7481,19.7529 Z M66.9931,0.9127 L43.5106,0.9127 L43.5106,23.4003 C43.5106,25.507 43.4704,27.6213 43.3374,29.7241 C43.2277,31.4566 42.9369,33.2183 42.3192,34.8466 C41.7477,36.3529 40.8854,37.688 39.7193,38.8 C38.7833,39.6924 37.6463,40.367 36.4523,40.8863 L37.938,45.8677 C39.802,45.4756 41.6732,44.8191 43.1957,43.7102 C44.8333,42.5174 46.0743,41.0017 46.9485,39.1742 C47.9684,37.0411 48.5112,34.6762 48.7754,32.3359 C49.1198,29.2855 49.2414,26.1969 49.2414,23.1281 L49.2414,6.9157 L60.4462,6.9157 L60.4462,45.0717 L66.9931,45.0717 L66.9931,0.9127 Z M78.8782,45.0717 L103.2448,45.0717 L103.2448,38.933 L85.5612,38.933 L85.5612,25.6875 L100.7963,25.6875 L100.7963,19.8209 L85.5612,19.8209 L85.5612,6.8476 L103.2448,6.8476 L103.2448,0.9127 L78.8782,0.9127 L78.8782,45.0717 Z M112.2051,45.0717 L118.8881,45.0717 L118.8881,25.4837 L123.2662,25.4837 C125.2473,25.4837 127.087,26.0614 128.5052,27.4796 C130.0291,29.0035 130.9093,31.4172 131.4654,33.4564 L131.4719,33.4803 L134.2462,45.0717 L140.8929,45.0717 L137.4984,31.314 C137.0837,29.5514 136.4303,27.7169 135.35,26.2457 C134.422,24.982 133.1523,24.1769 131.6735,23.684 L127.2194,22.1992 L131.6596,20.6728 C132.9499,20.2291 133.9724,19.3155 134.793,18.2483 C135.9223,16.7802 136.6015,14.9627 137.0222,13.1743 L137.0295,13.1442 L140.1267,1.0488 L133.9531,1.0488 L131.0652,12.2938 C130.7556,13.5323 130.3202,14.7801 129.6657,15.8808 C129.145,16.7567 128.5185,17.5929 127.7512,18.2684 C127.0439,18.8906 126.2375,19.3674 125.3358,19.6472 C124.554,19.8901 123.7458,20.025 122.9263,20.025 L118.8881,20.025 L118.8881,0.845 L112.2051,0.845 L112.2051,45.0717 Z M172.6877,6.7116 L172.6877,0.9127 L145.8042,0.9127 L145.8042,6.7116 L155.9386,6.7116 L155.9386,45.0717 L162.5535,45.0717 L162.5535,6.7116 L172.6877,6.7116 Z M180.6956,0.9127 L180.6956,45.0717 L187.3785,45.0717 L187.3785,27.7962 L194.6814,27.7962 C196.5667,27.7962 198.4549,27.5244 200.2124,26.8217 C201.7516,26.206 203.1309,25.327 204.2841,24.1327 C205.4483,22.9269 206.285,21.4999 206.8596,19.9298 C207.5204,18.123 207.7829,16.2045 207.7829,14.2866 C207.7829,12.2354 207.5354,10.0919 206.7732,8.1742 C206.1583,6.6282 205.281,5.2288 204.0482,4.1006 C202.8285,2.984 201.3913,2.2172 199.8172,1.7243 C197.9801,1.1489 196.0588,0.9127 194.1372,0.9127 L180.6956,0.9127 Z M201.304,14.1505 C201.304,16.3255 200.8213,18.6315 199.0533,20.0747 C197.6521,21.2184 196.0134,21.7933 194.2052,21.7933 L187.3785,21.7933 L187.3785,6.8476 L194.1372,6.8476 C196.014,6.8476 197.8415,7.3057 199.2724,8.5739 C200.859,9.9802 201.304,12.1178 201.304,14.1505 Z M241.9942,31.7661 L241.9942,14.1505 C241.9942,12.4421 241.7056,10.7682 241.1594,9.1496 C240.6186,7.5475 239.8042,6.0962 238.704,4.8126 C237.5622,3.4806 236.1339,2.4874 234.5484,1.7512 C232.662,0.8753 230.5496,0.5729 228.4846,0.5729 C226.3404,0.5729 224.0849,0.8688 222.1355,1.8093 C220.534,2.5818 219.0843,3.6088 217.9329,4.9734 C216.858,6.2472 216.0708,7.679 215.5861,9.2732 C215.1045,10.8587 214.8389,12.492 214.8389,14.1505 L214.8389,31.0181 C214.8389,32.942 215.0883,34.8468 215.6258,36.6956 C216.1136,38.3734 216.8909,39.9132 218.0086,41.2588 C219.1353,42.6149 220.558,43.6093 222.1616,44.3262 C224.1203,45.2015 226.3563,45.4799 228.4846,45.4799 C230.3676,45.4799 232.2396,45.2058 234.0036,44.5306 C235.5922,43.9225 237.0061,43.033 238.2088,41.8306 C239.4365,40.6029 240.3439,39.1487 240.9842,37.5383 C241.7136,35.704 241.9942,33.7323 241.9942,31.7661 Z M235.2432,13.7423 L235.2432,32.4462 C235.2432,34.359 234.6244,36.0907 233.1793,37.3751 C231.8527,38.5543 230.2579,39.1371 228.4846,39.1371 C226.3416,39.1371 224.2927,38.5084 223.0063,36.7004 C221.8745,35.1093 221.4538,33.2183 221.4538,31.2899 L221.4538,13.7423 C221.4538,12.9801 221.6006,12.2272 221.8413,11.5055 C222.1117,10.6945 222.5318,9.9541 223.0761,9.2953 C223.6736,8.5719 224.42,8.0121 225.257,7.5937 C226.2563,7.094 227.3757,6.9157 228.4846,6.9157 C229.6292,6.9157 230.7735,7.1274 231.7705,7.7119 C232.5713,8.181 233.2785,8.7794 233.8369,9.5238 C234.3435,10.199 234.7304,10.9482 234.9504,11.7646 C235.123,12.4058 235.2432,13.0765 235.2432,13.7423 L235.2432,13.7423 Z" id="Fill-1-Copy"></path>
                <path d="M27.0201,102.2031 L20.6829,100.3663 C20.2898,101.4616 19.6454,102.4339 18.712,103.2256 C17.3848,104.3507 15.8192,104.9289 14.0793,104.9289 C11.9423,104.9289 9.8863,104.3016 8.6456,102.4585 C7.5724,100.8638 7.1846,98.9807 7.1846,97.0821 L7.1846,79.5345 C7.1846,78.7929 7.3116,78.0579 7.522,77.3484 C7.7629,76.5351 8.1558,75.7879 8.6785,75.1201 C9.261,74.3754 10.0094,73.8068 10.8518,73.3855 C11.851,72.8858 12.9704,72.7078 14.0793,72.7078 C15.19,72.7078 16.2892,72.9127 17.2757,73.4388 C18.0697,73.8623 18.7976,74.3972 19.4045,75.0645 C19.9955,75.7148 20.4443,76.4634 20.7223,77.2976 C20.7348,77.3345 20.747,77.3719 20.7592,77.409 L27.0527,75.5257 C26.7683,74.622 26.3959,73.7487 25.9432,72.9099 C25.2583,71.6408 24.3714,70.5262 23.2934,69.5681 C22.1425,68.5454 20.796,67.7939 19.362,67.2466 C17.6808,66.6051 15.8714,66.3647 14.0793,66.3647 C11.9352,66.3647 9.6797,66.6609 7.7303,67.6012 C6.1412,68.3677 4.7015,69.3893 3.571,70.7541 C2.5094,72.036 1.7328,73.4729 1.2492,75.0654 C0.7673,76.6508 0.5017,78.2838 0.5017,79.9424 L0.5017,96.8099 C0.5017,98.7338 0.7511,100.639 1.2886,102.4874 C1.7756,104.1624 2.542,105.7073 3.6467,107.0617 C4.7528,108.4187 6.1653,109.4068 7.7564,110.118 C9.7151,110.9934 11.9511,111.2717 14.0793,111.2717 C17.3097,111.2717 20.328,110.4811 22.8959,108.4793 C25.0106,106.8307 26.3196,104.6973 27.0201,102.2031 Z M36.5493,110.8638 L60.9159,110.8638 L60.9159,104.7248 L43.2323,104.7248 L43.2323,91.4797 L58.4673,91.4797 L58.4673,85.6128 L43.2323,85.6128 L43.2323,72.6398 L60.9159,72.6398 L60.9159,66.7049 L36.5493,66.7049 L36.5493,110.8638 Z M93.0188,72.5037 L93.0188,66.7049 L66.1353,66.7049 L66.1353,72.5037 L76.2698,72.5037 L76.2698,110.8638 L82.8847,110.8638 L82.8847,72.5037 L93.0188,72.5037 Z M107.7097,66.7049 L101.0267,66.7049 L101.0267,110.8638 L115.0806,110.8638 C116.9685,110.8638 118.8592,110.6172 120.6484,109.999 C122.1913,109.4655 123.5803,108.6568 124.7467,107.5107 C125.9447,106.3338 126.8024,104.9071 127.4042,103.3458 C128.1344,101.4519 128.3861,99.3736 128.3861,97.3542 C128.3861,95.5488 128.1469,93.7536 127.5817,92.0358 C127.0899,90.5408 126.3347,89.1861 125.2505,88.0407 C124.1325,86.8595 122.7438,86.0244 121.236,85.4362 C119.3598,84.7037 117.2879,84.4565 115.2847,84.4565 L107.7097,84.4565 L107.7097,66.7049 Z M121.7712,97.5583 C121.7712,99.4668 121.2876,101.2958 120.0319,102.7712 C118.6871,104.3512 116.7649,104.9289 114.7404,104.9289 L107.6416,104.9289 L107.6416,90.4595 L114.6724,90.4595 C116.4937,90.4595 118.3141,90.8609 119.7399,92.0545 C121.35,93.4027 121.7712,95.5593 121.7712,97.5583 Z M162.1646,102.2031 L155.8275,100.3663 C155.4343,101.4616 154.7903,102.4339 153.8566,103.2256 C152.5294,104.3507 150.9641,104.9289 149.2239,104.9289 C147.0869,104.9289 145.0309,104.3016 143.7902,102.4585 C142.717,100.8638 142.3292,98.9807 142.3292,97.0821 L142.3292,79.5345 C142.3292,78.7929 142.4565,78.0579 142.6665,77.3484 C142.9077,76.5351 143.3003,75.7879 143.8233,75.1201 C144.4056,74.3754 145.1539,73.8068 145.9964,73.3855 C146.9956,72.8858 148.1153,72.7078 149.2239,72.7078 C150.3345,72.7078 151.4338,72.9127 152.4203,73.4388 C153.2142,73.8623 153.9422,74.3972 154.5491,75.0645 C155.1401,75.7148 155.5888,76.4634 155.8669,77.2976 C155.8794,77.3345 155.8916,77.3719 155.9037,77.409 L162.1972,75.5257 C161.9129,74.622 161.5404,73.7487 161.0877,72.9099 C160.4029,71.6408 159.5159,70.5262 158.4379,69.5681 C157.2873,68.5454 155.9406,67.7939 154.5066,67.2466 C152.8253,66.6051 151.016,66.3647 149.2239,66.3647 C147.0798,66.3647 144.8243,66.6609 142.8749,67.6012 C141.2858,68.3677 139.846,69.3893 138.7156,70.7541 C137.654,72.036 136.8776,73.4729 136.3937,75.0654 C135.9121,76.6508 135.6462,78.2838 135.6462,79.9424 L135.6462,96.8099 C135.6462,98.7338 135.8957,100.639 136.4331,102.4874 C136.9201,104.1624 137.6866,105.7073 138.7913,107.0617 C139.8974,108.4187 141.3099,109.4068 142.9012,110.118 C144.8597,110.9934 147.0957,111.2717 149.2239,111.2717 C152.4543,111.2717 155.4726,110.4811 158.0405,108.4793 C160.1551,106.8307 161.4642,104.6973 162.1646,102.2031 Z M194.8362,72.5037 L194.8362,66.7049 L167.953,66.7049 L167.953,72.5037 L178.0871,72.5037 L178.0871,110.8638 L184.702,110.8638 L184.702,72.5037 L194.8362,72.5037 Z M202.8443,66.7049 L202.8443,110.8638 L209.5273,110.8638 L209.5273,93.5881 L216.8299,93.5881 C218.7155,93.5881 220.6037,93.3165 222.3612,92.6135 C223.9001,91.9978 225.2797,91.1188 226.4329,89.9246 C227.597,88.7187 228.4338,87.292 229.0081,85.7216 C229.6692,83.9148 229.9317,81.9966 229.9317,80.0784 C229.9317,78.0276 229.6842,75.884 228.922,73.9664 C228.3071,72.4201 227.4298,71.0206 226.197,69.8927 C224.9773,68.7758 223.5398,68.0094 221.966,67.5164 C220.1289,66.941 218.2073,66.7049 216.286,66.7049 L202.8443,66.7049 Z M223.4525,79.9424 C223.4525,82.1174 222.97,84.4237 221.2021,85.8668 C219.8009,87.0106 218.1622,87.5854 216.354,87.5854 L209.5273,87.5854 L209.5273,72.6398 L216.286,72.6398 C218.1625,72.6398 219.99,73.0975 221.4212,74.3658 C223.0077,75.7723 223.4525,77.9099 223.4525,79.9424 Z M264.1427,97.5583 L264.1427,79.9424 C264.1427,78.2339 263.8544,76.5601 263.3079,74.9415 C262.7673,73.3393 261.9527,71.8883 260.8525,70.6048 C259.711,69.2728 258.2824,68.2792 256.6972,67.5433 C254.8108,66.6674 252.6981,66.3647 250.6331,66.3647 C248.4892,66.3647 246.2337,66.6609 244.2843,67.6012 C242.6825,68.3739 241.2328,69.4009 240.0817,70.7652 C239.0068,72.0391 238.2193,73.4712 237.7349,75.0654 C237.2533,76.6508 236.9874,78.2838 236.9874,79.9424 L236.9874,96.8099 C236.9874,98.7338 237.2371,100.639 237.7743,102.4874 C238.2621,104.1653 239.0397,105.7053 240.1574,107.0507 C241.2841,108.4067 242.7068,109.4011 244.3104,110.118 C246.2691,110.9934 248.5048,111.2717 250.6331,111.2717 C252.5161,111.2717 254.3884,110.9976 256.1524,110.3227 C257.7407,109.7147 259.1549,108.8251 260.3573,107.6224 C261.585,106.395 262.4927,104.9408 263.133,103.3305 C263.8624,101.4959 264.1427,99.5244 264.1427,97.5583 Z M257.3917,79.5345 L257.3917,98.2383 C257.3917,100.1511 256.7729,101.8828 255.3278,103.1672 C254.0012,104.3464 252.4067,104.9289 250.6331,104.9289 C248.4901,104.9289 246.4415,104.3002 245.1551,102.4925 C244.023,100.9015 243.6023,99.0105 243.6023,97.0821 L243.6023,79.5345 C243.6023,78.7719 243.7494,78.0193 243.9901,77.2974 C244.2602,76.4864 244.6806,75.746 245.2249,75.0872 C245.8221,74.3638 246.5688,73.8039 247.4055,73.3855 C248.405,72.8858 249.5244,72.7078 250.6331,72.7078 C251.7777,72.7078 252.9223,72.9195 253.9193,73.504 C254.7201,73.9732 255.4273,74.5716 255.9857,75.3159 C256.492,75.9912 256.8792,76.7401 257.0989,77.5567 C257.2718,78.1979 257.3917,78.8686 257.3917,79.5345 Z M298.5709,53.238 L294.7495,53.238 C294.7163,53.3849 294.6792,53.5306 294.6387,53.6754 C294.432,54.4141 294.1055,55.1066 293.6732,55.7404 C293.2282,56.3933 292.6751,56.9534 292.0175,57.3922 C291.2351,57.9135 290.3351,58.1352 289.4014,58.1352 C288.4875,58.1352 287.619,57.9016 286.8474,57.4103 C286.1625,56.9744 285.5868,56.4114 285.1293,55.7407 C284.7146,55.1324 284.3804,54.4779 284.1309,53.7854 C284.066,53.6051 284.0076,53.4226 283.9569,53.238 L280.1006,53.238 C280.2078,53.7984 280.3509,54.3523 280.5153,54.8912 C280.8753,56.071 281.4369,57.1572 282.1742,58.1462 C282.9404,59.1749 283.9234,59.9757 285.04,60.5982 C286.3519,61.3292 287.9186,61.5535 289.4014,61.5535 C290.838,61.5535 292.3182,61.3202 293.5828,60.6038 C294.6911,59.9757 295.6611,59.1707 296.4242,58.1462 C297.1683,57.1478 297.7426,56.0531 298.1244,54.8679 C298.2959,54.3359 298.449,53.7902 298.5709,53.238 Z M296.8401,110.8638 L303.523,110.8638 L303.523,66.7049 L297.1918,66.7049 L283.657,94.1825 L280.9422,94.1825 L280.9422,66.7049 L274.3273,66.7049 L274.3273,110.8638 L281.0157,110.8638 L294.2106,85.0861 L296.8401,85.0861 L296.8401,110.8638 Z" id="Fill-2-Copy"></path>
                <polygon id="Fill-3-Copy" points="334.8921 113.6764 348.8306 113.6764 348.8306 36.2021 348.8306 21.7193 334.8921 21.7193 329.6913 21.7193 329.6913 36.2021 334.8921 36.2021"></polygon>
                <polygon id="Fill-4-Copy" points="368.1994 113.6764 382.1377 113.6764 382.1377 36.2021 382.1377 21.7193 368.1994 21.7193 362.9984 21.7193 362.9984 36.2021 368.1994 36.2021"></polygon>
            </g>
            <path d="M12.2173,145.4952 L22.6253,151.4689 L50.0527,123.4173 L77.4799,151.4689 L87.8879,145.4952 L72.1692,60.2472 L72.1692,60.2458 L99.2919,29.192 L66.4441,29.192 L66.4429,29.192 L61.122,0.3276 L58.3208,0.3067 L62.0572,29.192 C54.055,29.192 46.0502,29.192 38.048,29.192 L41.7843,0.3067 L38.9831,0.3276 L33.6622,29.192 L33.6611,29.192 L0.8132,29.192 L27.936,60.2458 L27.936,60.2472 L12.2173,145.4952 Z M50.0527,110.836 L37.4099,99.5904 L50.0527,85.5935 L62.6952,99.5904 L50.0527,110.836 Z M50.0527,76.7423 C44.7531,71.1257 39.8883,65.1146 34.52,59.5644 L37.6174,32.5176 C45.9068,32.5176 54.1984,32.5176 62.488,32.5176 L65.5852,59.5644 C60.2172,65.1146 55.3521,71.1257 50.0527,76.7423 Z M53.9027,81.1853 L71.3117,100.7415 L56.1047,116.6022 L75.6734,134.4557 L66.8647,66.3556 L53.9027,81.1853 Z M67.0569,32.5176 L71.058,54.2148 L91.9363,32.5139 L67.0569,32.5176 Z M46.2024,81.1853 L28.7937,100.7415 L44.0005,116.6022 L24.4318,134.4557 L33.2404,66.3556 L46.2024,81.1853 Z M33.0483,32.5176 L29.0471,54.2148 L8.1689,32.5139 L33.0483,32.5176 Z" id="Fill-5" fill="url(#linearGradient-1)"></path>
        </g>
    </g>
</svg>