<svg xmlns="http://www.w3.org/2000/svg" width="23" height="19.969" viewBox="0 0 23 19.969">
  <metadata><?xpacket begin="﻿" id="W5M0MpCehiHzreSzNTczkc9d"?>
<x:xmpmeta xmlns:x="adobe:ns:meta/" x:xmptk="Adobe XMP Core 5.6-c138 79.159824, 2016/09/14-01:09:01        ">
   <rdf:RDF xmlns:rdf="http://www.w3.org/1999/02/22-rdf-syntax-ns#">
      <rdf:Description rdf:about=""/>
   </rdf:RDF>
</x:xmpmeta>
                                                                                                    
                                                                                                    
                                                                                                    
                                                                                                    
                                                                                                    
                                                                                                    
                                                                                                    
                                                                                                    
                                                                                                    
                                                                                                    
                                                                                                    
                                                                                                    
                                                                                                    
                                                                                                    
                                                                                                    
                                                                                                    
                                                                                                    
                                                                                                    
                                                                                                    
                                                                                                    
                           
<?xpacket end="w"?></metadata>
<defs>
    <style>
      .cls-1 {
        fill: #31a8e5;
        fill-rule: evenodd;
      }
    </style>
  </defs>
  <path id="tel" class="cls-1" d="M1527.66,91.761c0.05-.868.1-1.707,0.15-2.547,0.06-.915.11-1.831,0.19-2.743a0.817,0.817,0,0,1,.21-0.476q4.725-4.412,9.46-8.808a0.157,0.157,0,0,0,.05-0.043l0.24-.427a1.848,1.848,0,0,0-.53-0.034,1.551,1.551,0,0,0-.48.255q-5.835,3.8-11.65,7.606a0.554,0.554,0,0,1-.53.075c-1.68-.56-3.36-1.106-5.03-1.662a0.864,0.864,0,0,1-.74-0.653,0.816,0.816,0,0,1,.56-0.783,15.31,15.31,0,0,1,1.44-.633q9.78-3.9,19.55-7.787a0.987,0.987,0,0,1,1.45.964,8.53,8.53,0,0,1-.23,1.659q-1.32,6.442-2.65,12.88l-0.63,3.083c-0.01.061-.03,0.122-0.04,0.183a1.149,1.149,0,0,1-2.01.741c-1.68-1.253-3.34-2.546-5.01-3.822a1.232,1.232,0,0,0-.17-0.124c-0.08.075-.16,0.148-0.24,0.225q-1.215,1.218-2.43,2.436A1.284,1.284,0,0,1,1527.66,91.761Z" transform="translate(-1519 -73)"/>
</svg>
