<?xml version="1.0" encoding="UTF-8"?> <svg xmlns="http://www.w3.org/2000/svg" width="162" height="32" viewBox="0 0 162 32" fill="none"> <path d="M160.376 14.3255C159.965 14.7204 159.461 14.9179 158.862 14.9179C158.264 14.9179 157.756 14.7204 157.34 14.3255C156.93 13.9306 156.724 13.4327 156.724 12.832C156.724 12.2313 156.93 11.7335 157.34 11.3386C157.756 10.9436 158.264 10.7462 158.862 10.7462C159.461 10.7462 159.965 10.9436 160.376 11.3386C160.792 11.7335 161 12.2313 161 12.832C161 13.4327 160.792 13.9306 160.376 14.3255ZM157.571 14.1085C157.919 14.4478 158.349 14.6175 158.862 14.6175C159.375 14.6175 159.806 14.4478 160.153 14.1085C160.501 13.7637 160.675 13.3382 160.675 12.832C160.675 12.3259 160.501 11.9031 160.153 11.5638C159.806 11.219 159.375 11.0465 158.862 11.0465C158.349 11.0465 157.919 11.219 157.571 11.5638C157.229 11.9031 157.058 12.3259 157.058 12.832C157.058 13.3382 157.229 13.7637 157.571 14.1085ZM158.238 13.8833V11.7307H158.999C159.17 11.7307 159.313 11.7863 159.427 11.8976C159.546 12.0032 159.606 12.1646 159.606 12.3815C159.606 12.7597 159.461 12.9683 159.17 13.0072L159.675 13.8833H159.273L158.819 13.0239H158.563V13.8833H158.238ZM158.563 12.7653H158.948C159.159 12.7653 159.264 12.6373 159.264 12.3815C159.264 12.1312 159.161 12.006 158.956 12.006H158.563V12.7653Z" fill="#3D4247"></path> <path d="M47.7035 11.095H50.4566L45.902 21.5524H41.8233L37.3367 11.095H40.1918L43.9306 20.2239L47.7035 11.095Z" fill="#3D4247"></path> <path d="M52.258 21.5524V11.095H63.1346V13.2069H54.9432V15.2166H60.9253V17.2264H54.9432V19.4064H63.1346V21.5183H52.258V21.5524Z" fill="#3D4247"></path> <path d="M75.0308 11.095H77.614V21.5524H73.0254L67.995 12.5937V21.5524H65.3778V11.095H70.0004L75.0308 20.0536V11.095Z" fill="#3D4247"></path> <path d="M79.6193 13.3431V11.129H91.2437V13.3431H86.7911V21.5864H84.0719V13.3431H79.6193Z" fill="#3D4247"></path> <path d="M100.285 11.095C101.508 11.095 102.494 11.3675 103.276 11.9465C104.058 12.5256 104.465 13.3772 104.465 14.5354C104.465 15.6935 104.092 16.511 103.344 17.056C102.596 17.601 101.576 17.8395 100.285 17.8395H95.8662V21.5183H93.1471V11.095H100.285ZM100.149 15.7616C100.659 15.7616 101.033 15.6594 101.338 15.4551C101.61 15.2507 101.78 14.9441 101.78 14.5354C101.78 14.1266 101.644 13.82 101.338 13.6156C101.067 13.4113 100.659 13.3091 100.149 13.3091H95.8662V15.7616H100.149Z" fill="#3D4247"></path> <path d="M115.07 21.5524L111.467 17.7032H109.156V21.5524H106.437V11.095H113.745C114.968 11.095 115.954 11.3675 116.736 11.9465C117.517 12.5256 117.925 13.3431 117.925 14.4672C117.925 15.4551 117.619 16.2045 117.042 16.7154C116.43 17.2264 115.614 17.5329 114.594 17.6351L118.503 21.5524H115.07ZM109.156 13.275V15.6935H113.609C114.118 15.6935 114.492 15.5913 114.798 15.3869C115.07 15.1826 115.24 14.876 115.24 14.5013C115.24 14.1266 115.104 13.82 114.798 13.6156C114.492 13.4113 114.118 13.3091 113.643 13.3091H109.156V13.275Z" fill="#3D4247"></path> <path d="M121.392 20.292C120.202 19.3383 119.591 18.0098 119.591 16.3407C119.591 14.6716 120.202 13.3431 121.392 12.3894C122.582 11.4356 124.247 10.9587 126.389 10.9587C128.53 10.9587 130.195 11.4356 131.385 12.3894C132.575 13.3431 133.186 14.6716 133.186 16.3407C133.186 18.0098 132.575 19.3383 131.385 20.292C130.195 21.2458 128.53 21.7227 126.389 21.7227C124.247 21.7227 122.582 21.2458 121.392 20.292ZM123.363 14.0244C122.65 14.6035 122.276 15.3869 122.276 16.3407C122.276 17.2945 122.65 18.0779 123.363 18.657C124.077 19.2361 125.097 19.5427 126.389 19.5427C127.68 19.5427 128.666 19.2361 129.38 18.657C130.093 18.0779 130.467 17.2945 130.467 16.3407C130.467 15.3869 130.093 14.6035 129.38 14.0244C128.666 13.4453 127.646 13.1388 126.389 13.1388C125.097 13.1388 124.077 13.4453 123.363 14.0244Z" fill="#3D4247"></path> <path d="M146.102 11.095H150.827V21.5524H148.244V12.5256L144.675 21.5524H141.004L137.435 12.5256V21.5524H134.818V11.095H139.576L142.873 20.0195L146.102 11.095Z" fill="#3D4247"></path> <path d="M1.08747 3.82817V1C4.03453 4.11824 10.6816 10.6448 27.0504 11.0609V13.1728C20.1843 13.1728 8.58631 11.37 1.08747 3.82817Z" fill="#3D4247"></path> <path d="M27.0504 15.2507H1V17.3626H27.0504V15.2507Z" fill="#3D4247"></path> <path d="M1.08746 28.764V31.5922C4.03452 28.474 10.6816 21.9474 27.0504 21.5313V19.4194C20.1843 19.4194 8.5863 21.2222 1.08746 28.764Z" fill="#3D4247"></path> </svg> 