<svg xmlns="http://www.w3.org/2000/svg" width="22" height="24" viewBox="0 0 22 24">
  <metadata><?xpacket begin="﻿" id="W5M0MpCehiHzreSzNTczkc9d"?>
<x:xmpmeta xmlns:x="adobe:ns:meta/" x:xmptk="Adobe XMP Core 5.6-c138 79.159824, 2016/09/14-01:09:01        ">
   <rdf:RDF xmlns:rdf="http://www.w3.org/1999/02/22-rdf-syntax-ns#">
      <rdf:Description rdf:about=""/>
   </rdf:RDF>
</x:xmpmeta>
                                                                                                    
                                                                                                    
                                                                                                    
                                                                                                    
                                                                                                    
                                                                                                    
                                                                                                    
                                                                                                    
                                                                                                    
                                                                                                    
                                                                                                    
                                                                                                    
                                                                                                    
                                                                                                    
                                                                                                    
                                                                                                    
                                                                                                    
                                                                                                    
                                                                                                    
                                                                                                    
                           
<?xpacket end="w"?></metadata>
<defs>
    <style>
      .cls-1 {
        fill: #70468e;
        fill-rule: evenodd;
      }
    </style>
  </defs>
  <path id="viber" class="cls-1" d="M1451.78,95.942V93.078a1.307,1.307,0,0,0-.83-1.308c-0.38-.168-0.77-0.333-1.16-0.468A4.639,4.639,0,0,1,1447.22,89a10.585,10.585,0,0,1-1.07-3.7,21.945,21.945,0,0,1,.26-6.814,12.18,12.18,0,0,1,.44-1.8,5.715,5.715,0,0,1,2.76-3.124,12.2,12.2,0,0,1,4.24-1.347,21.608,21.608,0,0,1,6.51.06,14.723,14.723,0,0,1,3,.71,6.807,6.807,0,0,1,2.7,1.716,6.005,6.005,0,0,1,1.38,2.759,21.171,21.171,0,0,1,.5,6.638,13.841,13.841,0,0,1-.69,3.777,7.166,7.166,0,0,1-.99,2,5.221,5.221,0,0,1-2.41,1.73,11.969,11.969,0,0,1-3.71.715c-1.43.077-2.87,0.125-4.31,0.181a1.591,1.591,0,0,0-1.15.552c-0.74.792-1.51,1.555-2.27,2.335-0.19.2-.36,0.412-0.54,0.617Zm8.96-5.779a1.994,1.994,0,0,0,.26-0.027,3.178,3.178,0,0,0,2.2-1.8,1.174,1.174,0,0,0-.37-1.623c-0.32-.266-0.66-0.516-1-0.763-0.41-.292-0.81-0.6-1.24-0.85a1.286,1.286,0,0,0-1.57.075,2.426,2.426,0,0,0-.42.483,1.029,1.029,0,0,1-1.38.426,7.055,7.055,0,0,1-2.02-1.253,6.1,6.1,0,0,1-1.74-2.569,1.143,1.143,0,0,1,.33-1.32c0.2-.189.43-0.36,0.63-0.555a0.917,0.917,0,0,0,.21-1.157,9.451,9.451,0,0,0-1.98-2.766,1.08,1.08,0,0,0-1.16-.305,5.229,5.229,0,0,0-1.06.5,2.18,2.18,0,0,0-.79,2.618c0.11,0.258.21,0.523,0.31,0.787a16.837,16.837,0,0,0,4.14,6.132,19.131,19.131,0,0,0,5.54,3.661A2.7,2.7,0,0,0,1460.74,90.163Zm3.23-8.763c-0.04-.423-0.04-0.735-0.09-1.04a6.261,6.261,0,0,0-3.83-4.956,5.913,5.913,0,0,0-3.76-.319,0.537,0.537,0,0,0-.45.652,0.55,0.55,0,0,0,.69.493,5.349,5.349,0,0,1,1.66-.1,5.138,5.138,0,0,1,4.55,5.745c-0.02.214-.07,0.425-0.09,0.638a0.523,0.523,0,0,0,.39.583,0.532,0.532,0,0,0,.73-0.389C1463.86,82.239,1463.91,81.764,1463.97,81.4Zm-6.36-4.729c-0.25.027-.49,0.046-0.73,0.082a0.539,0.539,0,0,0-.47.415,0.583,0.583,0,0,0,.7.732,3.31,3.31,0,0,1,3.07,1.09,3.441,3.441,0,0,1,.83,2.9,0.542,0.542,0,0,0,.48.665,0.533,0.533,0,0,0,.65-0.485,4.545,4.545,0,0,0-.01-1.644A4.6,4.6,0,0,0,1457.61,76.67Zm0.05,1.771a0.573,0.573,0,0,0-.67.57,0.567,0.567,0,0,0,.57.6,1.741,1.741,0,0,1,1.76,1.774,0.553,0.553,0,0,0,.6.574,0.562,0.562,0,0,0,.56-0.609A2.938,2.938,0,0,0,1457.66,78.442Z" transform="translate(-1446 -72)"/>
</svg>
