<svg xmlns="http://www.w3.org/2000/svg" width="22.31" height="21.875" viewBox="0 0 22.31 21.875">
  <metadata><?xpacket begin="﻿" id="W5M0MpCehiHzreSzNTczkc9d"?>
<x:xmpmeta xmlns:x="adobe:ns:meta/" x:xmptk="Adobe XMP Core 5.6-c138 79.159824, 2016/09/14-01:09:01        ">
   <rdf:RDF xmlns:rdf="http://www.w3.org/1999/02/22-rdf-syntax-ns#">
      <rdf:Description rdf:about=""/>
   </rdf:RDF>
</x:xmpmeta>
                                                                                                    
                                                                                                    
                                                                                                    
                                                                                                    
                                                                                                    
                                                                                                    
                                                                                                    
                                                                                                    
                                                                                                    
                                                                                                    
                                                                                                    
                                                                                                    
                                                                                                    
                                                                                                    
                                                                                                    
                                                                                                    
                                                                                                    
                                                                                                    
                                                                                                    
                                                                                                    
                           
<?xpacket end="w"?></metadata>
<defs>
    <style>
      .cls-1 {
        fill: #53c662;
        fill-rule: evenodd;
      }
    </style>
  </defs>
  <path id="w" class="cls-1" d="M1484.64,93.207c0.32-.961.58-1.856,0.92-2.718a2.151,2.151,0,0,0-.15-2.094,9.9,9.9,0,0,1-1.16-8.119,10.54,10.54,0,0,1,8.8-8.045,10.708,10.708,0,0,1,11.23,4.681,10.051,10.051,0,0,1,1.64,8.27,10.57,10.57,0,0,1-6.42,7.731,10.836,10.836,0,0,1-10.02-.529,2.289,2.289,0,0,0-1.98.025c-0.83.251-1.65,0.517-2.48,0.771A2.1,2.1,0,0,1,1484.64,93.207Zm14.15-3.774c0.4-.072.8-0.118,1.18-0.222a2.632,2.632,0,0,0,1.87-2.532,0.7,0.7,0,0,0-.29-0.483c-0.86-.47-1.74-0.908-2.61-1.348a0.552,0.552,0,0,0-.76.18c-0.27.347-.62,0.642-0.9,0.985a0.808,0.808,0,0,1-1.1.233,9.613,9.613,0,0,1-4.03-3.572c-0.55-.859-0.54-0.864.11-1.629a2.075,2.075,0,0,0,.39-0.471,1.467,1.467,0,0,0,.18-0.865c-0.27-.907-0.62-1.789-0.96-2.675a0.589,0.589,0,0,0-.25-0.319,2.117,2.117,0,0,0-2.12.34,3.421,3.421,0,0,0-1.11,2.587,5.576,5.576,0,0,0,.82,2.735,13.561,13.561,0,0,0,5.82,5.889A9.384,9.384,0,0,0,1498.79,89.433Z" transform="translate(-1483.88 -72.031)"/>
</svg>
